# xmcd
#
# Track frame offsets: 
#        150
#        20322
#        48010
#        61446
#        76279
#        92503
#        125599
#        137881
#        165723
#        181228
#        196095
#        203327
#        219485
#        240827
#        253125
#        260349
#        274957
#        295652
#        314164
#
# Disc length: 4456 seconds
#
# Revision: 1
# Processed by: cddbd v1.5.2PL0 Copyright (c) Steve Scherf et al.
# Submitted via: ExactAudioCopy v0.99pb5
#
DISCID=09116613
DTITLE=Various Artist - Blues Britannia
DYEAR=1993
DGENRE=Blues
TTITLE0=Cliff Aungier - Got To Move
TTITLE1=Chris Farlowe - Gamblers Blues
TTITLE2=John B. Spencer - Re-Incarnation Blues
TTITLE3=Cliff Aungier - Sandiago Serenade
TTITLE4=Richard Newman - Blood Red River
TTITLE5=Cliff Aungier - How Long Blues
TTITLE6=Peter Green - Born Under A Bag Sign
TTITLE7=Mickey Moody and John McLaughlin - Bluemonia
TTITLE8=Rod Dawes - Guilty
TTITLE9=Snowy White - Out Of Order
TTITLE10=Richard Newman - Highroller
TTITLE11=Dave Kelly - Hard Times - Killing Floor
TTITLE12=John B. Spencer - Forgotten The Blues
TTITLE13=Steve Marriot - Hambone
TTITLE14=Mickey Moody and Geoff Bradford - Perfect Strangers Rag
TTITLE15=Rod Dawes - Love That's All
TTITLE16=Cliff Aungier - Living With The Blues
TTITLE17=John B. Spencer - On More Whiskey
TTITLE18=Geoff Bradford - A Little Security
EXTD=
EXTT0=
EXTT1=
EXTT2=
EXTT3=
EXTT4=
EXTT5=
EXTT6=
EXTT7=
EXTT8=
EXTT9=
EXTT10=
EXTT11=
EXTT12=
EXTT13=
EXTT14=
EXTT15=
EXTT16=
EXTT17=
EXTT18=
PLAYORDER=
